<mxfile host="app.diagrams.net" modified="2021-06-11T06:45:17.268Z" agent="5.0 (Windows NT 10.0; Win64; x64) AppleWebKit/537.36 (KHTML, like Gecko) Chrome/91.0.4472.77 Safari/537.36" etag="tp-H7IUM60FgPYoCPrKq" version="14.7.7" type="github">
  <diagram id="K4pR86BjLB9yl-GsG9kq" name="Page-1">
    <mxGraphModel dx="1212" dy="638" grid="1" gridSize="10" guides="1" tooltips="1" connect="1" arrows="1" fold="1" page="1" pageScale="1" pageWidth="850" pageHeight="1100" math="0" shadow="0">
      <root>
        <mxCell id="0" />
        <mxCell id="1" parent="0" />
        <mxCell id="RclCM4op31ZODjCnRKzl-1" value="Kulanacı" style="shape=umlActor;verticalLabelPosition=bottom;verticalAlign=top;html=1;outlineConnect=0;" vertex="1" parent="1">
          <mxGeometry x="270" y="10" width="50" height="100" as="geometry" />
        </mxCell>
        <mxCell id="RclCM4op31ZODjCnRKzl-3" value="" style="rounded=0;whiteSpace=wrap;html=1;" vertex="1" parent="1">
          <mxGeometry x="360" y="10" width="160" height="100" as="geometry" />
        </mxCell>
        <mxCell id="RclCM4op31ZODjCnRKzl-5" value="" style="endArrow=none;html=1;" edge="1" parent="1">
          <mxGeometry width="50" height="50" relative="1" as="geometry">
            <mxPoint x="300" y="59.5" as="sourcePoint" />
            <mxPoint x="410" y="59.5" as="targetPoint" />
          </mxGeometry>
        </mxCell>
        <mxCell id="RclCM4op31ZODjCnRKzl-6" value="Bitki Silme" style="ellipse;whiteSpace=wrap;html=1;" vertex="1" parent="1">
          <mxGeometry x="382.5" y="26.25" width="115" height="67.5" as="geometry" />
        </mxCell>
        <mxCell id="RclCM4op31ZODjCnRKzl-8" value="Kısa Tanımı:&lt;br&gt;Bitki sileme use cases&#39;i kulanıcı aktörünün sahip olduğu bitki/bitkiler sisteminden bitkilerini silme işlemidir&amp;nbsp;" style="rounded=0;whiteSpace=wrap;html=1;align=left;" vertex="1" parent="1">
          <mxGeometry x="120" y="140" width="590" height="70" as="geometry" />
        </mxCell>
        <mxCell id="RclCM4op31ZODjCnRKzl-10" value="Adım Adım Tanımı:&lt;br&gt;1-kulanıcı aktörü sahip ollduğu bitki silmek için sistemdeki ilgili alana gelerek bitkinin bulunduğu alana ulaşır.&lt;br&gt;2-silencek bitkinin üzrenie gelip silme butonuna tıklanır&lt;br&gt;3-işlemden sonra bitki kulanıcın listesinden silinir" style="rounded=0;whiteSpace=wrap;html=1;align=left;" vertex="1" parent="1">
          <mxGeometry x="121" y="210" width="590" height="110" as="geometry" />
        </mxCell>
      </root>
    </mxGraphModel>
  </diagram>
</mxfile>
